<svg xmlns="http://www.w3.org/2000/svg" viewBox="0 0 64 64">
  <rect width="64" height="64" rx="12" fill="#ffd400"/>
  <circle cx="32" cy="32" r="27" fill="#ffd400" stroke="#000" stroke-width="4"/>
  <path fill="#000" d="M32 6a26 26 0 0 1 12.6 3.3L36.5 24a9.3 9.3 0 0 0-9 0L19.4 9.3A26 26 0 0 1 32 6Zm22.5 39a26 26 0 0 1-22.3 13l.1-16.8a9.3 9.3 0 0 0 7.8-4.5L54.5 45ZM9.5 45l14.4-8.3a9.3 9.3 0 0 0 7.8 4.5l.1 16.8A26 26 0 0 1 9.5 45Z"/>
  <circle cx="32" cy="32" r="8" fill="#ffd400" stroke="#000" stroke-width="4"/>
  <circle cx="32" cy="32" r="3.2" fill="#000"/>
</svg>
